<svg width="40" height="40" viewBox="0 0 40 40" fill="none" xmlns="http://www.w3.org/2000/svg">
<rect width="40" height="40" rx="20" fill="black"/>
<rect width="40" height="40" rx="20" fill="url(#paint0_linear_36_4)"/>
<path d="M19.1022 13.5658C20.8581 13.5658 22.5126 14.3419 23.7251 15.5551V15.5587C23.7251 14.9761 24.1182 14.5354 24.6616 14.5354H24.7996C25.657 14.5354 25.8288 15.3416 25.8288 15.596L25.8324 24.6503C25.7727 25.2437 26.4469 25.5504 26.8214 25.1691C28.2768 23.6764 30.0211 17.4878 25.915 13.9048C22.0857 10.5604 16.946 11.1129 14.2134 12.9904C11.3091 14.9912 9.4526 19.4105 11.2559 23.5639C13.2252 28.0922 18.855 29.443 22.2057 28.0958C23.9019 27.4128 24.6839 29.696 22.9208 30.4434C20.2637 31.5735 12.8586 31.4581 9.40013 25.4866C7.06355 21.4528 7.18717 14.357 13.3869 10.6808C18.1255 7.86663 24.3777 8.6463 28.1467 12.5697C32.0853 16.6752 31.8575 24.3565 28.0123 27.3426C26.2708 28.7006 23.6848 27.3799 23.7035 25.4013L23.6841 24.7564C22.4716 25.9538 20.8581 26.6561 19.1022 26.6561C15.6286 26.6561 12.5704 23.6062 12.5704 20.1464C12.5704 16.6494 15.6286 13.5673 19.1022 13.5673V13.5658ZM23.4714 19.8963C23.3398 17.3617 21.4532 15.8353 19.1734 15.8353H19.0871C16.4595 15.8353 14.9997 17.8992 14.9997 20.2389C14.9997 22.8624 16.7628 24.5192 19.0764 24.5192C21.6587 24.5192 23.3542 22.6352 23.4778 20.4066L23.4714 19.8963Z" fill="white"/>
<defs>
<linearGradient id="paint0_linear_36_4" x1="20" y1="0" x2="20" y2="40" gradientUnits="userSpaceOnUse">
<stop stop-color="#3F258E"/>
<stop offset="1" stop-color="#09092B"/>
</linearGradient>
</defs>
</svg>
