<svg width="40" height="40" viewBox="0 0 40 40" fill="none" xmlns="http://www.w3.org/2000/svg">
<rect width="40" height="40" rx="20" fill="black"/>
<rect width="40" height="40" rx="20" fill="url(#paint0_linear_31_2)"/>
<g clip-path="url(#clip0_31_2)">
<path d="M28.9222 24.6705L26.98 22.7283C26.6285 22.377 26.1882 22.1277 25.7061 22.0069C25.2241 21.8862 24.7182 21.8985 24.2426 22.0427C23.767 22.1869 23.3395 22.4574 23.0056 22.8255C22.6717 23.1936 22.4439 23.6454 22.3467 24.1327C19.1439 23.5339 16.0289 20.4316 15.835 17.6589C16.3795 17.5587 16.8806 17.2952 17.2716 16.9033C17.7866 16.3883 18.0758 15.6899 18.0758 14.9616C18.0758 14.2334 17.7866 13.535 17.2716 13.02L15.33 11.0777C14.815 10.5628 14.1166 10.2736 13.3883 10.2736C12.6601 10.2736 11.9616 10.5628 11.4467 11.0777C5.6211 16.9033 23.0966 34.3789 28.9222 28.5533C29.4368 28.0383 29.7259 27.34 29.7259 26.6119C29.7259 25.8838 29.4368 25.1856 28.9222 24.6705Z" fill="white"/>
</g>
<defs>
<linearGradient id="paint0_linear_31_2" x1="20" y1="0" x2="20" y2="40" gradientUnits="userSpaceOnUse">
<stop stop-color="#3F258E"/>
<stop offset="1" stop-color="#09092B"/>
</linearGradient>
<clipPath id="clip0_31_2">
<rect width="20" height="20" fill="white" transform="translate(10 10)"/>
</clipPath>
</defs>
</svg>
